<?xml version="1.0" standalone="no"?>
<!DOCTYPE svg PUBLIC "-//W3C//DTD SVG 20010904//EN"
 "http://www.w3.org/TR/2001/REC-SVG-20010904/DTD/svg10.dtd">
<svg version="1.0" xmlns="http://www.w3.org/2000/svg"
 width="320.000000pt" height="320.000000pt" viewBox="0 0 320.000000 320.000000"
 preserveAspectRatio="xMidYMid meet">
<metadata>
Created by potrace 1.11, written by Peter Selinger 2001-2013
</metadata>
<g transform="translate(0.000000,320.000000) scale(0.100000,-0.100000)"
fill="#000000" stroke="none">
<path d="M1430 2620 c0 -5 -11 -7 -25 -5 -14 1 -25 -2 -25 -7 0 -5 -4 -7 -8
-4 -4 2 -21 -2 -37 -10 -28 -13 -30 -18 -29 -64 1 -31 -3 -50 -10 -50 -7 0 -8
-3 -1 -8 16 -11 17 -95 2 -86 -9 5 -9 3 1 -7 13 -14 17 -53 4 -45 -5 3 -9 -1
-9 -9 0 -8 3 -12 7 -10 4 2 7 -9 8 -26 0 -20 -3 -27 -11 -23 -8 5 -8 3 1 -7
13 -14 17 -53 4 -45 -5 3 -9 -1 -9 -9 0 -8 3 -12 7 -10 4 2 7 -9 8 -26 0 -20
-3 -27 -11 -23 -8 5 -8 3 1 -7 13 -14 17 -53 4 -45 -5 3 -9 -1 -9 -9 0 -8 3
-12 7 -10 4 2 7 -9 8 -26 0 -20 -3 -27 -11 -23 -8 5 -8 3 1 -7 13 -14 17 -53
4 -45 -5 3 -9 -1 -9 -9 0 -8 3 -12 7 -10 16 10 8 -60 -8 -72 -16 -12 -15 -12
2 -6 13 4 17 3 12 -5 -4 -7 -105 -10 -342 -9 -322 2 -336 1 -357 -18 -12 -11
-23 -31 -23 -45 -1 -14 -2 -38 -3 -53 -1 -20 -5 -26 -13 -21 -8 5 -7 0 2 -11
9 -10 11 -20 5 -22 -6 -2 -8 -37 -5 -93 3 -57 1 -90 -5 -90 -7 0 -7 -3 0 -8 6
-4 10 -18 10 -32 0 -14 2 -29 5 -35 2 -5 5 -17 6 -25 1 -30 25 -98 37 -108 6
-5 33 -9 59 -7 30 1 45 -2 41 -8 -4 -6 -1 -7 7 -2 17 10 120 13 114 3 -2 -4 0
-10 6 -13 6 -4 9 -1 8 6 -2 8 15 12 54 13 31 0 54 -2 52 -6 -2 -4 0 -10 6 -13
6 -4 9 -1 8 6 -2 8 15 12 53 13 46 1 56 -2 52 -14 -4 -13 -3 -13 5 -1 8 11 32
15 90 14 44 0 85 -4 92 -8 8 -5 11 -4 7 3 -5 6 0 8 13 5 23 -6 25 -14 8 -31
-8 -8 -8 -12 -1 -12 13 0 12 -42 -2 -52 -7 -5 -6 -8 0 -8 6 0 12 -20 12 -45 1
-32 -2 -43 -10 -39 -8 5 -8 2 1 -7 13 -14 17 -53 4 -45 -5 3 -9 -1 -9 -9 0 -8
3 -12 7 -10 4 2 7 -9 8 -26 0 -20 -3 -27 -11 -23 -8 5 -8 3 1 -7 13 -14 17
-53 4 -45 -5 3 -9 -1 -9 -9 0 -8 3 -12 7 -10 4 2 7 -9 8 -26 0 -20 -3 -27 -11
-23 -8 5 -8 3 1 -7 13 -14 17 -53 4 -45 -5 3 -9 -1 -9 -9 0 -8 3 -12 7 -10 4
2 7 -9 8 -26 0 -20 -3 -27 -11 -23 -8 5 -8 3 1 -7 6 -7 12 -21 12 -32 0 -12
-4 -16 -12 -11 -10 6 -10 5 -1 -7 7 -9 11 -25 8 -37 -5 -27 19 -52 51 -52 13
0 24 -4 24 -9 0 -5 10 -7 22 -3 11 3 19 1 16 -4 -3 -5 32 -10 80 -12 48 -2 93
-8 101 -15 12 -10 13 -9 7 1 -6 11 3 13 45 12 30 -1 57 -1 62 0 4 2 10 3 15 4
4 2 30 6 57 11 64 10 85 21 85 45 0 11 6 20 13 20 8 0 8 3 2 8 -14 9 -13 75 0
84 6 5 5 8 -2 8 -15 0 -14 49 1 69 8 11 8 13 -1 8 -8 -5 -11 0 -10 13 1 11 6
20 12 20 6 0 7 3 0 8 -16 11 -17 34 -3 43 7 5 8 9 3 9 -13 0 -13 120 -1 139 6
9 5 12 -2 7 -7 -4 -10 1 -9 14 1 11 6 20 12 20 6 0 7 3 0 8 -16 11 -17 34 -3
43 7 5 8 9 3 9 -13 0 -13 89 -1 109 6 9 5 12 -1 8 -5 -3 -10 -1 -10 6 0 8 17
12 47 12 38 0 47 -3 43 -15 -4 -13 -3 -13 5 -1 11 16 124 23 115 7 -4 -5 0 -6
7 -1 19 12 119 12 113 1 -4 -5 0 -6 7 -1 7 4 90 8 185 9 184 1 205 6 205 52 0
12 4 25 9 28 4 3 7 17 6 31 -2 14 0 25 5 25 5 0 8 81 7 179 0 99 -4 178 -9
175 -7 -4 -11 21 -11 61 0 14 12 14 -380 16 -219 1 -350 6 -354 12 -3 6 -1 7
5 3 7 -4 12 -2 12 3 0 6 -4 11 -8 11 -5 0 -9 13 -9 30 0 16 5 27 10 23 6 -4 7
-1 1 8 -13 21 -13 132 0 148 8 11 8 13 -1 8 -8 -5 -11 0 -10 13 1 11 6 20 12
20 6 0 7 3 0 8 -16 11 -17 34 -3 43 7 5 8 9 3 9 -13 0 -13 120 -1 139 6 9 5
12 -2 7 -7 -4 -10 1 -9 14 1 11 6 20 12 20 6 0 7 3 0 8 -16 11 -17 34 -3 43 7
5 8 9 3 9 -13 0 -13 89 -1 109 6 10 5 12 -2 7 -8 -5 -12 0 -12 14 0 21 -31 39
-76 42 -13 1 -24 5 -24 9 0 3 -76 6 -170 6 -93 0 -170 -3 -170 -7z"/>
</g>
</svg>
