<svg version="1.0" xmlns="http://www.w3.org/2000/svg" width="426.667" height="426.667" viewBox="0 0 320 320"><path d="M143 58c0 .5-1.1.7-2.5.5-1.4-.1-2.5.2-2.5.7 0 .5-.4.7-.8.4-.4-.2-2.1.2-3.7 1-2.8 1.3-3 1.8-2.9 6.4.1 3.1-.3 5-1 5s-.8.3-.1.8c1.6 1.1 1.7 9.5.2 8.6-.9-.5-.9-.3.1.7 1.3 1.4 1.7 5.3.4 4.5-.5-.3-.9.1-.9.9s.3 1.2.7 1c.4-.2.7.9.8 2.6 0 2-.3 2.7-1.1 2.3-.8-.5-.8-.3.1.7 1.3 1.4 1.7 5.3.4 4.5-.5-.3-.9.1-.9.9s.3 1.2.7 1c.4-.2.7.9.8 2.6 0 2-.3 2.7-1.1 2.3-.8-.5-.8-.3.1.7 1.3 1.4 1.7 5.3.4 4.5-.5-.3-.9.1-.9.9s.3 1.2.7 1c.4-.2.7.9.8 2.6 0 2-.3 2.7-1.1 2.3-.8-.5-.8-.3.1.7 1.3 1.4 1.7 5.3.4 4.5-.5-.3-.9.1-.9.9s.3 1.2.7 1c1.6-1 .8 6-.8 7.2-1.6 1.2-1.5 1.2.2.6 1.3-.4 1.7-.3 1.2.5-.4.7-10.5 1-34.2.9-32.2-.2-33.6-.1-35.7 1.8-1.2 1.1-2.3 3.1-2.3 4.5-.1 1.4-.2 3.8-.3 5.3-.1 2-.5 2.6-1.3 2.1s-.7 0 .2 1.1c.9 1 1.1 2 .5 2.2-.6.2-.8 3.7-.5 9.3.3 5.7.1 9-.5 9-.7 0-.7.3 0 .8.6.4 1 1.8 1 3.2 0 1.4.2 2.9.5 3.5.2.5.5 1.7.6 2.5.1 3 2.5 9.8 3.7 10.8.6.5 3.3.9 5.9.7 3-.1 4.5.2 4.1.8-.4.6-.1.7.7.2 1.7-1 12-1.3 11.4-.3-.2.4 0 1 .6 1.3.6.4.9.1.8-.6-.2-.8 1.5-1.2 5.4-1.3 3.1 0 5.4.2 5.2.6-.2.4 0 1 .6 1.3.6.4.9.1.8-.6-.2-.8 1.5-1.2 5.3-1.3 4.6-.1 5.6.2 5.2 1.4-.4 1.3-.3 1.3.5.1.8-1.1 3.2-1.5 9-1.4 4.4 0 8.5.4 9.2.8.8.5 1.1.4.7-.3-.5-.6 0-.8 1.3-.5 2.3.6 2.5 1.4.8 3.1-.8.8-.8 1.2-.1 1.2 1.3 0 1.2 4.2-.2 5.2-.7.5-.6.8 0 .8s1.2 2 1.2 4.5c.1 3.2-.2 4.3-1 3.9-.8-.5-.8-.2.1.7 1.3 1.4 1.7 5.3.4 4.5-.5-.3-.9.1-.9.9s.3 1.2.7 1c.4-.2.7.9.8 2.6 0 2-.3 2.7-1.1 2.3-.8-.5-.8-.3.1.7 1.3 1.4 1.7 5.3.4 4.5-.5-.3-.9.1-.9.9s.3 1.2.7 1c.4-.2.7.9.8 2.6 0 2-.3 2.7-1.1 2.3-.8-.5-.8-.3.1.7 1.3 1.4 1.7 5.3.4 4.5-.5-.3-.9.1-.9.9s.3 1.2.7 1c.4-.2.7.9.8 2.6 0 2-.3 2.7-1.1 2.3-.8-.5-.8-.3.1.7.6.7 1.2 2.1 1.2 3.2 0 1.2-.4 1.6-1.2 1.1-1-.6-1-.5-.1.7.7.9 1.1 2.5.8 3.7-.5 2.7 1.9 5.2 5.1 5.2 1.3 0 2.4.4 2.4.9s1 .7 2.2.3c1.1-.3 1.9-.1 1.6.4-.3.5 3.2 1 8 1.2 4.8.2 9.3.8 10.1 1.5 1.2 1 1.3.9.7-.1-.6-1.1.3-1.3 4.5-1.2 3 .1 5.7.1 6.2 0 .4-.2 1-.3 1.5-.4.4-.2 3-.6 5.7-1.1 6.4-1 8.5-2.1 8.5-4.5 0-1.1.6-2 1.3-2 .8 0 .8-.3.2-.8-1.4-.9-1.3-7.5 0-8.4.6-.5.5-.8-.2-.8-1.5 0-1.4-4.9.1-6.9.8-1.1.8-1.3-.1-.8-.8.5-1.1 0-1-1.3.1-1.1.6-2 1.2-2s.7-.3 0-.8c-1.6-1.1-1.7-3.4-.3-4.3.7-.5.8-.9.3-.9-1.3 0-1.3-12-.1-13.9.6-.9.5-1.2-.2-.7-.7.4-1-.1-.9-1.4.1-1.1.6-2 1.2-2s.7-.3 0-.8c-1.6-1.1-1.7-3.4-.3-4.3.7-.5.8-.9.3-.9-1.3 0-1.3-8.9-.1-10.9.6-.9.5-1.2-.1-.8-.5.3-1 .1-1-.6 0-.8 1.7-1.2 4.7-1.2 3.8 0 4.7.3 4.3 1.5-.4 1.3-.3 1.3.5.1 1.1-1.6 12.4-2.3 11.5-.7-.4.5 0 .6.7.1 1.9-1.2 11.9-1.2 11.3-.1-.4.5 0 .6.7.1.7-.4 9-.8 18.5-.9 18.4-.1 20.5-.6 20.5-5.2 0-1.2.4-2.5.9-2.8.4-.3.7-1.7.6-3.1-.2-1.4 0-2.5.5-2.5s.8-8.1.7-17.9c0-9.9-.4-17.8-.9-17.5-.7.4-1.1-2.1-1.1-6.1 0-1.4 1.2-1.4-38-1.6-21.9-.1-35-.6-35.4-1.2-.3-.6-.1-.7.5-.3.7.4 1.2.2 1.2-.3 0-.6-.4-1.1-.8-1.1-.5 0-.9-1.3-.9-3 0-1.6.5-2.7 1-2.3.6.4.7.1.1-.8-1.3-2.1-1.3-13.2 0-14.8.8-1.1.8-1.3-.1-.8-.8.5-1.1 0-1-1.3.1-1.1.6-2 1.2-2s.7-.3 0-.8c-1.6-1.1-1.7-3.4-.3-4.3.7-.5.8-.9.3-.9-1.3 0-1.3-12-.1-13.9.6-.9.5-1.2-.2-.7-.7.4-1-.1-.9-1.4.1-1.1.6-2 1.2-2s.7-.3 0-.8c-1.6-1.1-1.7-3.4-.3-4.3.7-.5.8-.9.3-.9-1.3 0-1.3-8.9-.1-10.9.6-1 .5-1.2-.2-.7-.8.5-1.2 0-1.2-1.4 0-2.1-3.1-3.9-7.6-4.2-1.3-.1-2.4-.5-2.4-.9 0-.3-7.6-.6-17-.6-9.3 0-17 .3-17 .7z"/></svg>